# xmcd
#
# Track frame offsets:
#	150
#	17095
#	39115
#	58959
#	78507
#	97922
#	116266
#	140089
#	156912
#	174377
#	198013
#
# Disc length: 2915 seconds
#
# Revision: 0
# Processed by: cddbd v1.5.2PL0 Copyright (c) Steve Scherf et al.
# Submitted via: EasyCDDAExtractor 12.0.0.1
#
DISCID=840b610b
DTITLE=Alvaro Torres - Muy Personal
DYEAR=2009
DGENRE=Latin
TTITLE0=Sobre La Roca
TTITLE1=Un Nuevo Hombre
TTITLE2=Cancion De Adan
TTITLE3=Muy Personal
TTITLE4=Nuestro Amor
TTITLE5=Hazme Tuyo Señor
TTITLE6=Si No Fuera Por Ti
TTITLE7=Te Sueño Grande
TTITLE8=Madre Querida
TTITLE9=Por Suerte
TTITLE10=Un Paso Contra El Hambre
EXTD=
EXTT0=
EXTT1=
EXTT2=
EXTT3=
EXTT4=
EXTT5=
EXTT6=
EXTT7=
EXTT8=
EXTT9=
EXTT10=
PLAYORDER=
